<svg xmlns="http://www.w3.org/2000/svg"
  width="495" height="184"
  viewBox="0 0 495 184"
  role="img"
  aria-label="Top programming languages for Claudia-Rocha-H">

  <title>Top Languages – Claudia-Rocha-H</title>

  <style>
    .card      { fill: #161b22; stroke: #30363d; stroke-width: 1; }
    .title     { font: 600 14px -apple-system, BlinkMacSystemFont, 'Segoe UI', sans-serif; fill: #00D9FF; }
    .updated   { font: 400 10px -apple-system, BlinkMacSystemFont, 'Segoe UI', sans-serif; fill: #484f58; }
    .lang-name { font: 500 11px -apple-system, BlinkMacSystemFont, 'Segoe UI', sans-serif; fill: #c9d1d9; }
    .lang-pct  { font: 600 11px -apple-system, BlinkMacSystemFont, 'Segoe UI', sans-serif; fill: #8b949e; }
  </style>

  <defs>
    <!-- Clip all bar segments to the rounded bar shape -->
    <clipPath id="bar-clip">
      <rect x="20" y="52" width="455" height="10" rx="5" />
    </clipPath>
  </defs>

  <!-- Card background -->
  <rect width="495" height="184" rx="6" ry="6" class="card" />

  <!-- Title -->
  <text x="20" y="30" class="title">⚡ Languages Used</text>

  <!-- Last updated -->
  <text x="475" y="30" class="updated" text-anchor="end">Updated Apr 5, 2026</text>

  <!-- Stacked bar background track -->
  <rect x="20" y="52" width="455" height="10" rx="5" fill="#21262d" />

  <!-- Stacked bar segments (clipped to rounded track) -->
  <g clip-path="url(#bar-clip)">
    <rect x="20.00" y="52" width="370.12" height="10" fill="#3572A5" />
    <rect x="390.12" y="52" width="57.69" height="10" fill="#f34b7d" />
    <rect x="447.80" y="52" width="12.85" height="10" fill="#8b949e" />
    <rect x="460.65" y="52" width="5.49" height="10" fill="#8b949e" />
    <rect x="466.14" y="52" width="5.13" height="10" fill="#555555" />
    <rect x="471.27" y="52" width="2.00" height="10" fill="#3178c6" />
    <rect x="473.27" y="52" width="2.00" height="10" fill="#A97BFF" />
    <rect x="475.27" y="52" width="2.00" height="10" fill="#b07219" />
    <rect x="477.27" y="52" width="2.00" height="10" fill="#8b949e" />
    <rect x="479.27" y="52" width="2.00" height="10" fill="#f1e05a" />
    <rect x="481.27" y="52" width="2.00" height="10" fill="#8b949e" />
    <rect x="483.27" y="52" width="2.00" height="10" fill="#563d7c" />
  </g>

  <!-- Legend -->
  
    <g transform="translate(20, 76)">
      <circle cx="5" cy="5" r="5" fill="#3572A5" />
      <text x="14" y="9" class="lang-name">Python</text>
      <text x="14" y="9" class="lang-pct" dx="43.2">81.34%</text>
    </g>
    <g transform="translate(171.66666666666666, 76)">
      <circle cx="5" cy="5" r="5" fill="#f34b7d" />
      <text x="14" y="9" class="lang-name">C++</text>
      <text x="14" y="9" class="lang-pct" dx="21.6">12.68%</text>
    </g>
    <g transform="translate(323.3333333333333, 76)">
      <circle cx="5" cy="5" r="5" fill="#8b949e" />
      <text x="14" y="9" class="lang-name">Cython</text>
      <text x="14" y="9" class="lang-pct" dx="43.2">2.82%</text>
    </g>
    <g transform="translate(20, 98)">
      <circle cx="5" cy="5" r="5" fill="#8b949e" />
      <text x="14" y="9" class="lang-name">Jupyter Notebook</text>
      <text x="14" y="9" class="lang-pct" dx="111.66666666666666">1.21%</text>
    </g>
    <g transform="translate(171.66666666666666, 98)">
      <circle cx="5" cy="5" r="5" fill="#555555" />
      <text x="14" y="9" class="lang-name">C</text>
      <text x="14" y="9" class="lang-pct" dx="7.2">1.13%</text>
    </g>
    <g transform="translate(323.3333333333333, 98)">
      <circle cx="5" cy="5" r="5" fill="#3178c6" />
      <text x="14" y="9" class="lang-name">TypeScript</text>
      <text x="14" y="9" class="lang-pct" dx="72">0.26%</text>
    </g>
    <g transform="translate(20, 120)">
      <circle cx="5" cy="5" r="5" fill="#A97BFF" />
      <text x="14" y="9" class="lang-name">Kotlin</text>
      <text x="14" y="9" class="lang-pct" dx="43.2">0.25%</text>
    </g>
    <g transform="translate(171.66666666666666, 120)">
      <circle cx="5" cy="5" r="5" fill="#b07219" />
      <text x="14" y="9" class="lang-name">Java</text>
      <text x="14" y="9" class="lang-pct" dx="28.8">0.12%</text>
    </g>
    <g transform="translate(323.3333333333333, 120)">
      <circle cx="5" cy="5" r="5" fill="#8b949e" />
      <text x="14" y="9" class="lang-name">Fortran</text>
      <text x="14" y="9" class="lang-pct" dx="50.4">0.07%</text>
    </g>
    <g transform="translate(20, 142)">
      <circle cx="5" cy="5" r="5" fill="#f1e05a" />
      <text x="14" y="9" class="lang-name">JavaScript</text>
      <text x="14" y="9" class="lang-pct" dx="72">0.06%</text>
    </g>
    <g transform="translate(171.66666666666666, 142)">
      <circle cx="5" cy="5" r="5" fill="#8b949e" />
      <text x="14" y="9" class="lang-name">PowerShell</text>
      <text x="14" y="9" class="lang-pct" dx="72">0.04%</text>
    </g>
    <g transform="translate(323.3333333333333, 142)">
      <circle cx="5" cy="5" r="5" fill="#563d7c" />
      <text x="14" y="9" class="lang-name">CSS</text>
      <text x="14" y="9" class="lang-pct" dx="21.6">0.02%</text>
    </g>
</svg>